<svg width="127" height="30" viewBox="0 0 127 30" fill="none" xmlns="http://www.w3.org/2000/svg">
<g id="Logo">
<path id="5" fill-rule="evenodd" clip-rule="evenodd" d="M24.4073 1.44008H25.2943C25.2589 2.14533 25.2296 2.95668 25.2063 3.87414C25.1954 4.31296 25.1861 4.75182 25.1786 5.19071C25.1556 6.50977 25.1428 8.21365 25.1404 10.3023C25.1401 10.5539 25.14 10.8055 25.14 11.0571H24.2531C24.208 10.5078 24.1457 9.96018 24.0661 9.41487C23.9902 8.90133 23.9005 8.41689 23.7969 7.96155C23.7823 7.89696 23.7672 7.83246 23.7518 7.76806C23.6223 7.22049 23.4434 6.68572 23.2173 6.17029C23.071 5.83881 22.9017 5.51791 22.7106 5.20994C22.4108 4.73433 22.043 4.30498 21.6187 3.9355C21.332 3.68383 21.0267 3.45404 20.7054 3.24807C20.1655 2.88904 19.5935 2.60694 18.9894 2.40178C18.3853 2.19662 17.7619 2.09403 17.1192 2.09403C16.5599 2.08962 16.0025 2.15684 15.4604 2.29407C14.7364 2.4776 14.064 2.82363 13.4944 3.30578C12.7656 3.93081 12.161 4.68687 11.712 5.53461C11.5504 5.83507 11.4052 6.14404 11.277 6.46015C10.872 7.46445 10.5657 8.50559 10.3624 9.56894C10.29 9.9413 10.2285 10.3157 10.178 10.6916C9.97238 12.2175 9.86954 13.6985 9.86954 15.1347C9.86954 16.5708 9.97238 18.0518 10.178 19.5777C10.3837 21.1036 10.75 22.5141 11.277 23.8092C11.5532 24.5 11.9167 25.1527 12.3587 25.7514C12.6902 26.1969 13.0712 26.6035 13.4944 26.9636C14.1936 27.5514 15.0406 27.9373 15.9438 28.0795C16.3321 28.1448 16.7254 28.1768 17.1192 28.1753C17.7619 28.1753 18.3853 28.0663 18.9894 27.8483C19.5935 27.6304 20.1655 27.3547 20.7054 27.0213C21.3461 26.6335 21.9131 26.136 22.3805 25.5516C22.7867 25.0346 23.1006 24.4517 23.3083 23.8284C23.6344 22.8619 23.8896 21.6931 24.0738 20.3223C24.1468 19.7743 24.2066 19.2246 24.2531 18.6737H25.14C25.14 20.9219 25.1503 22.7854 25.1709 24.2641C25.1732 24.433 25.1758 24.602 25.1786 24.7709C25.1847 25.1432 25.1919 25.5155 25.2002 25.8878C25.2243 26.9576 25.2557 27.8868 25.2943 28.6754H24.4073C24.3045 27.5727 24.131 26.8802 23.8868 26.5981C23.8361 26.538 23.7725 26.49 23.7007 26.4578C23.6289 26.4256 23.5507 26.4099 23.472 26.4119C23.2858 26.4117 23.062 26.4863 22.8009 26.6358C22.7573 26.6607 22.7144 26.6866 22.6721 26.7135C21.7209 27.3803 20.7118 27.9637 19.645 28.4638C18.5781 28.9639 17.2091 29.214 15.5381 29.214C14.2466 29.2207 12.9576 29.099 11.6902 28.8506C10.3752 28.5927 9.1012 28.1585 7.90289 27.5598C5.71773 26.4571 4.02101 24.8671 2.81274 22.7898C1.60447 20.7125 1.00034 18.2121 1.00034 15.2885C0.991855 13.9486 1.14397 12.6124 1.45344 11.3085C1.75266 10.0604 2.22991 8.86162 2.87058 7.74883C4.11741 5.59462 5.83341 3.91485 8.01858 2.70952C9.6395 1.82707 11.4146 1.26195 13.2483 1.04463C14.0206 0.947857 14.7983 0.900061 15.5767 0.901528C16.1488 0.899389 16.7206 0.931761 17.2888 0.998467C18.2367 1.11361 19.0606 1.33134 19.7606 1.65165C20.4674 1.97263 21.1484 2.34739 21.7975 2.77261C22.0976 2.97017 22.3894 3.18013 22.6721 3.40195C23.1818 3.78342 23.5716 3.8308 23.8412 3.54408C23.8436 3.5416 23.8459 3.5391 23.8482 3.53658C23.9253 3.44776 23.9882 3.34767 24.0348 3.2398C24.206 2.86705 24.3302 2.26714 24.4073 1.44008Z" fill="#A60815" stroke="#A60815" stroke-width="0.25" stroke-linecap="round"/>
<path id="6" fill-rule="evenodd" clip-rule="evenodd" d="M29.4133 11.1902C29.1649 12.4576 29.0431 13.7466 29.0498 15.0381C29.0484 15.8165 29.0962 16.5942 29.1929 17.3665C29.4102 19.2002 29.9754 20.9753 30.8578 22.5962C32.0631 24.7814 33.7429 26.4974 35.8971 27.7442C37.0099 28.3849 38.2087 28.8621 39.4568 29.1614C40.7607 29.4708 42.0969 29.623 43.4368 29.6145C46.3604 29.6145 48.8608 29.0103 50.9381 27.8021C53.0154 26.5938 54.6054 24.8971 55.7081 22.7119C56.3068 21.5136 56.741 20.2396 56.9989 18.9246C57.2473 17.6572 57.369 16.3682 57.3622 15.0767C57.3637 14.2978 57.316 13.5196 57.2193 12.7468C57.001 10.9077 56.4359 9.12692 55.5543 7.4993C54.3489 5.30128 52.6692 3.58528 50.5149 2.3513C49.4009 1.71676 48.2024 1.24452 46.9555 0.948814C45.651 0.642452 44.315 0.491911 42.9752 0.500338C41.8021 0.493687 40.6311 0.601721 39.4789 0.822906C38.0637 1.09002 36.7034 1.59365 35.4547 2.31274C33.3903 3.52101 31.8067 5.21773 30.7039 7.4029C30.1053 8.60122 29.6712 9.87522 29.4133 11.1902ZM29.7422 15.1924C29.7419 16.1958 30.1193 17.1624 30.799 17.899C31.0062 18.1327 31.2317 18.3495 31.4733 18.5472C32.4012 19.3121 33.6108 19.9355 35.1022 20.4177C35.479 20.5391 35.8596 20.6483 36.2433 20.7453C37.2503 20.9967 38.2727 21.1816 39.3038 21.2988C40.3466 21.4213 41.4538 21.4921 42.6256 21.5113C42.8447 21.5148 43.0638 21.5166 43.283 21.5165C44.3976 21.5197 45.5115 21.4641 46.6203 21.3497C47.9868 21.2046 49.2401 20.9646 50.3803 20.6296C52.3935 20.0383 53.945 19.2414 55.0349 18.2388C55.3868 17.9205 55.6993 17.5612 55.9659 17.1685C56.4215 16.5083 56.6669 15.7252 56.6698 14.9224C56.6702 13.919 56.2929 12.9524 55.6133 12.2158C55.406 11.9821 55.1805 11.7653 54.9388 11.5676C53.7847 10.6164 52.1883 9.8837 50.1495 9.36954C49.0715 9.10223 47.9765 8.90923 46.8722 8.79189C45.8467 8.67903 44.7632 8.61553 43.6219 8.60139C43.4576 8.59935 43.2934 8.59832 43.1291 8.59831C42.0357 8.59519 40.9428 8.64789 39.8547 8.75622C38.4497 8.90044 37.169 9.14344 36.0125 9.48523C35.3379 9.6817 34.6765 9.92127 34.0324 10.2025C33.3792 10.4909 32.7954 10.8108 32.2809 11.1621C31.9629 11.3779 31.6608 11.6165 31.3771 11.8761C31.0254 12.1943 30.7129 12.5537 30.4464 12.9465C29.9908 13.6067 29.7453 14.3896 29.7422 15.1924Z" fill="#151E26" stroke="#151E26" stroke-width="0.25" stroke-linecap="round"/>
<path id="7" fill-rule="evenodd" clip-rule="evenodd" d="M59.9995 1.43976V2.20912C60.2447 2.25679 60.4859 2.32263 60.7212 2.40607C61.1468 2.55943 61.4911 2.76306 61.7541 3.01695C61.9344 3.19485 62.0829 3.40224 62.1931 3.63012C62.2887 3.82195 62.3689 4.03801 62.4335 4.27831C62.4798 4.45205 62.5168 4.62809 62.5446 4.80571C62.6607 5.53506 62.7244 6.53087 62.7357 7.79313C62.7369 7.93212 62.7374 8.07112 62.7374 8.21012V28.6751C62.9833 28.6429 63.2304 28.6211 63.4782 28.6099C63.6489 28.6019 63.8198 28.598 63.9907 28.5981C64.2844 28.5986 64.5781 28.6086 64.8712 28.6281C65.06 28.6406 65.2485 28.6562 65.4367 28.6751L82.5196 10.0566V21.1354C82.5199 21.5398 82.5156 21.9441 82.5065 22.3484C82.4799 23.4856 82.4136 24.3955 82.3075 25.0783C82.2071 25.7247 82.0031 26.2419 81.6953 26.6297C81.5721 26.7857 81.4277 26.9239 81.2663 27.0402C81.0744 27.1752 80.8685 27.2895 80.6522 27.381C80.1314 27.6075 79.4556 27.7824 78.6249 27.9057V28.6751C78.8004 28.6579 78.9762 28.6438 79.1522 28.6328C79.5719 28.6057 80.0645 28.5878 80.6301 28.5789C81.4527 28.5661 82.224 28.5597 82.9438 28.5597C83.5094 28.5597 84.0878 28.5661 84.6791 28.5789C84.8703 28.5829 85.0614 28.5897 85.2525 28.5991C85.5941 28.6162 85.8914 28.6415 86.1444 28.6751V27.9057C85.9117 27.8543 85.6823 27.7887 85.4576 27.7093C84.9981 27.5446 84.6357 27.3343 84.3706 27.0787C84.2053 26.9154 84.0685 26.7258 83.9659 26.5176C83.7981 26.1881 83.6759 25.7788 83.5993 25.2899C83.4708 24.4692 83.4065 23.3409 83.4065 21.9047V5.51736C83.4065 4.76557 83.4469 4.17073 83.5276 3.73283C83.5465 3.62776 83.5704 3.52365 83.5993 3.42086C83.7279 2.97207 83.9914 2.66432 84.3899 2.49763C84.7499 2.34709 85.2619 2.25406 85.926 2.21854C85.9987 2.21467 86.0716 2.21153 86.1444 2.20912V1.43976C85.7781 1.46412 85.3188 1.48848 84.7666 1.51285C84.7374 1.51414 84.7082 1.51542 84.6791 1.51669C84.0878 1.54234 83.5094 1.55516 82.9438 1.55516C82.3011 1.55516 81.6712 1.54234 81.0543 1.51669C80.4783 1.49284 79.9583 1.46893 79.4942 1.44495C79.4615 1.44324 79.4288 1.4415 79.3961 1.43976L63.6243 18.0579V8.97948C63.6241 8.57514 63.6285 8.17082 63.6376 7.76658C63.6641 6.62934 63.7304 5.71932 63.8364 5.03651C63.9778 4.1261 64.3184 3.46574 64.8583 3.05541C65.0543 2.91048 65.2674 2.79007 65.4928 2.69689C66.0098 2.4757 66.6852 2.31311 67.5191 2.20912V1.43976C67.0592 1.46271 66.4758 1.48566 65.7691 1.50862C65.684 1.51136 65.5989 1.51406 65.5139 1.51669C64.6912 1.54234 63.92 1.55516 63.2001 1.55516C62.6089 1.55516 62.024 1.54234 61.4456 1.51669C60.8672 1.49105 60.3851 1.4654 59.9995 1.43976Z" fill="#151E26" stroke="#151E26" stroke-width="0.25" stroke-linecap="round"/>
<path id="8" fill-rule="evenodd" clip-rule="evenodd" d="M112.984 11.8261H112.097C111.924 11.1164 111.727 10.4128 111.506 9.71653C111.277 8.99794 111.033 8.34008 110.775 7.74293C110.538 7.18861 110.265 6.65071 109.956 6.13285C109.693 5.69167 109.402 5.2669 109.087 4.86091C108.768 4.45443 108.442 4.10206 108.11 3.80381C107.857 3.57526 107.585 3.36985 107.296 3.19005C106.909 2.94908 106.497 2.75071 106.068 2.59841C105.564 2.41953 105.034 2.32693 104.5 2.32452H104.461V24.3282C104.461 25.2376 104.543 25.9456 104.706 26.4522C104.731 26.5276 104.758 26.6018 104.789 26.6747C104.877 26.883 105.007 27.071 105.17 27.2267C105.334 27.3825 105.529 27.5026 105.742 27.5797C105.84 27.6179 105.94 27.6497 106.042 27.6749C106.248 27.7249 106.457 27.7639 106.667 27.7917C107.129 27.8554 107.689 27.8925 108.347 27.9028C108.479 27.9048 108.61 27.9058 108.742 27.9057V28.6751C107.842 28.6494 106.627 28.6238 105.098 28.5981C103.568 28.5725 101.968 28.5597 100.297 28.5597C98.7028 28.5597 97.1989 28.5725 95.7849 28.5981C94.5201 28.6211 93.4713 28.644 92.6385 28.667C92.5433 28.6696 92.4481 28.6723 92.353 28.6751V27.9057C92.6633 27.9062 92.9736 27.9001 93.2836 27.8874C93.8828 27.8622 94.385 27.8105 94.7902 27.7324C94.8781 27.7156 94.9655 27.6964 95.0523 27.6749C95.2546 27.6267 95.4489 27.5497 95.6292 27.4462C95.9335 27.2702 96.1712 26.9991 96.3055 26.6747C96.3782 26.4989 96.4349 26.317 96.4748 26.131C96.5805 25.6603 96.6333 25.0593 96.6333 24.3282V2.32452H96.5947C95.982 2.32843 95.3756 2.44901 94.8082 2.67977C94.4575 2.82022 94.1199 2.99096 93.799 3.19005C93.3927 3.44467 93.0184 3.74686 92.684 4.0902C92.3615 4.41577 92.0466 4.79346 91.7392 5.22328C91.5334 5.51214 91.3394 5.80916 91.1575 6.11362C90.8521 6.62986 90.5809 7.16552 90.3456 7.71715C89.8522 8.85773 89.403 10.2274 88.9981 11.8261H88.1112C88.1317 11.6908 88.1483 11.555 88.1609 11.4187C88.1839 11.1742 88.1995 10.8997 88.2076 10.5951C88.2204 10.1079 88.2268 9.59497 88.2268 9.05642C88.2267 8.84965 88.2255 8.64288 88.2232 8.43612C88.2182 7.96668 88.2081 7.40864 88.1929 6.76199C88.1855 6.44968 88.1776 6.13739 88.169 5.82511C88.1388 4.73773 88.0917 3.65088 88.0279 2.56495C88.006 2.18977 87.9824 1.81471 87.9569 1.43976C89.1909 1.4654 90.5534 1.49105 92.0445 1.51669C93.5355 1.54234 95.0266 1.55516 96.5176 1.55516H100.567H104.616C106.107 1.55516 107.598 1.54234 109.089 1.51669C110.58 1.49105 111.929 1.4654 113.138 1.43976C113.062 2.54477 113.003 3.65085 112.961 4.75762C112.947 5.11338 112.935 5.46922 112.926 5.82511C112.896 6.90503 112.878 7.78954 112.871 8.47863C112.869 8.67122 112.868 8.86382 112.868 9.05642C112.868 9.43035 112.874 9.80426 112.888 10.1779C112.893 10.3171 112.899 10.4561 112.906 10.5951C112.932 11.0824 112.958 11.4927 112.984 11.8261Z" fill="#151E26" stroke="#151E26" stroke-width="0.25" stroke-linecap="round"/>
<path id="9" fill-rule="evenodd" clip-rule="evenodd" d="M126.521 1.43976V2.20912C126.318 2.21544 126.116 2.22827 125.914 2.24759C125.435 2.29452 125.052 2.37786 124.766 2.49763C124.594 2.56779 124.438 2.67372 124.31 2.80838C124.182 2.94305 124.084 3.10338 124.023 3.27872C124.005 3.32543 123.989 3.37285 123.976 3.42086C123.936 3.56488 123.904 3.7112 123.882 3.85901C123.832 4.17919 123.801 4.57317 123.789 5.04094C123.785 5.19971 123.783 5.35853 123.783 5.51736V24.5975C123.782 24.839 123.788 25.0806 123.799 25.3218C123.821 25.7584 123.865 26.1251 123.929 26.4218C123.948 26.507 123.969 26.5914 123.995 26.6747C124.04 26.8262 124.105 26.9709 124.189 27.1046C124.33 27.3284 124.539 27.5012 124.785 27.598C124.918 27.6495 125.053 27.6917 125.191 27.7243C125.484 27.7958 125.843 27.8498 126.266 27.8865C126.351 27.8937 126.436 27.9002 126.521 27.9057V28.6751C125.775 28.6238 124.817 28.5917 123.648 28.5789C122.478 28.5661 121.289 28.5597 120.081 28.5597C118.693 28.5597 117.388 28.5661 116.167 28.5789C115.876 28.5819 115.586 28.5863 115.295 28.5922C114.585 28.6067 113.973 28.6291 113.461 28.6595C113.379 28.6643 113.298 28.6695 113.217 28.6751V27.9057C113.425 27.8927 113.633 27.8743 113.84 27.8503C114.215 27.8062 114.528 27.7466 114.778 27.6715C114.85 27.6501 114.921 27.6256 114.991 27.598C115.143 27.5375 115.282 27.447 115.399 27.3318C115.516 27.2167 115.609 27.0792 115.672 26.9277C115.708 26.8457 115.738 26.7611 115.762 26.6747C115.89 26.2131 115.955 25.5207 115.955 24.5975V5.51736C115.955 4.76557 115.914 4.17073 115.834 3.73283C115.815 3.62776 115.791 3.52365 115.762 3.42086C115.633 2.97207 115.37 2.66432 114.971 2.49763C114.611 2.34709 114.099 2.25406 113.435 2.21854C113.362 2.21467 113.29 2.21153 113.217 2.20912V1.43976C113.884 1.46271 114.741 1.48566 115.788 1.50862C115.914 1.51137 116.041 1.51406 116.167 1.51669C117.388 1.54234 118.693 1.55516 120.081 1.55516C121.289 1.55516 122.478 1.54234 123.648 1.51669C124.694 1.49374 125.571 1.47085 126.278 1.44803C126.359 1.44535 126.44 1.44259 126.521 1.43976Z" fill="#151E26" stroke="#151E26" stroke-width="0.25" stroke-linecap="round"/>
</g>
</svg>
